<?xml version="1.0"?>
<svg version="1.1" xmlns="http://www.w3.org/2000/svg" width="80px" height="45px" style=""><path fill="#0e568a" d="M73.73,27.66q-1.11,0.45-1.905,0.45t-0.795-0.33q0-0.21,0.885-0.24t1.275-0.21q1.14-0.6,1.14-1.77q0-0.6-0.33-1.26q-0.96-1.71-4.65-1.71q-2.13,0-4.26,0.645t-3.57,1.98t-1.44,2.475q0,1.74,3.45,2.55l3.54,0.66q2.13,0.39,3.18,1.08q1.38,0.84,1.38,2.4q0,0.63-0.21,1.35q-0.96,3.24-4.95,4.95q-3.33,1.47-7.86,1.47q-1.29,0-2.25-0.12q0.96,0.54,2.52,0.93q0.12,0.03,0.12,0.12q0,0.27-0.63,0.27q-1.23,0-3.06-1.47q-2.49-0.39-3.72-1.38q-0.78-0.63-1.44-1.86t-0.66-2.22t0.39-1.65q0.9-1.59,2.28-1.59q1.05,0,1.23,1.77q0.42,3.42,0.57,3.9q0.45,1.47,1.53,2.49q1.26,0.27,2.73,0.27q3.24,0,6.36-1.29t4.5-3.66q0.57-0.93,0.57-1.65q0-1.41-2.49-2.19l-5.28-1.2q-1.62-0.39-2.595-1.29t-0.975-2.07q0-1.8,2.25-3.6q1.71-1.38,4.185-2.145t4.86-0.765t3.945,0.69q2.01,0.93,2.01,2.715t-1.83,2.505z M54.41,41.04q-1.74-1.92-2.22-5.25q-0.27-1.89-0.51-1.89t-0.45,0.135t-0.42,0.585t-0.21,1.17q0,2.31,1.62,3.96q0.81,0.84,2.19,1.29z M78.4001,38.91q0.405,0.3,0.405,0.675t-0.375,0.66t-0.825,0.285t-0.825-0.315t-0.375-0.735q0-0.87,1.14-0.87q0.45,0,0.855,0.3z"/><path fill="#" d=""/></svg>
